<!-- <?xml version="1.0" encoding="utf-8"?> -->
<!-- Generator: Adobe Illustrator 19.1.0, SVG Export Plug-In . SVG Version: 6.00 Build 0)  -->
<svg version="1.1" id="Слой_3" xmlns="http://www.w3.org/2000/svg" xmlns:xlink="http://www.w3.org/1999/xlink" x="0px" y="0px"
	 viewBox="0 0 128 128" enable-background="new 0 0 128 128" xml:space="preserve">
<g>
	<path fill="#B8CBCD" d="M112.775,110.805c0,5.625-21.342,10.187-47.668,10.187s-47.666-4.562-47.666-10.187
		c0-5.626,21.41-9.813,47.736-9.813C91.504,100.991,112.775,105.179,112.775,110.805z"/>
	
		<rect x="14.809" y="45.839" transform="matrix(0.9659 -0.259 0.259 0.9659 -18.9965 12.4631)" fill="#FFFFFF" width="46.001" height="65"/>
	<path fill="#783741" d="M24.01,118.686c-0.522,0-1.04-0.137-1.5-0.401c-0.688-0.398-1.191-1.054-1.397-1.821L4.28,53.681
		c-0.43-1.601,0.521-3.246,2.12-3.675l44.431-11.912c1.606-0.431,3.246,0.521,3.675,2.12l16.833,62.783
		c0.206,0.769,0.099,1.588-0.299,2.277c-0.398,0.688-1.054,1.191-1.821,1.397l-44.432,11.912
		C24.531,118.652,24.269,118.686,24.01,118.686z M10.852,55.024l15.278,56.987l38.636-10.358L49.487,44.666L10.852,55.024z"/>
	<path opacity="0.2" fill="#783741" d="M11.441,59.687c-1.232,0-2.387-0.765-2.825-1.992c-0.558-1.561,0.256-3.276,1.816-3.834
		c8.359-2.985,16.87-5.216,25.881-7.578c6.091-1.596,12.389-3.246,18.685-5.162c1.586-0.483,3.262,0.412,3.743,1.997
		c0.482,1.585-0.412,3.261-1.997,3.743c-6.407,1.95-12.763,3.615-18.909,5.227c-8.882,2.327-17.27,4.526-25.385,7.424
		C12.117,59.631,11.776,59.687,11.441,59.687z"/>
	<polygon fill="#FFBAB0" points="41.823,90.686 29.281,80.108 34.441,64.686 46.344,75.532 	"/>
	<path fill="#783741" d="M41.823,92.686c-0.466,0-0.924-0.163-1.289-0.471L27.992,81.638c-0.627-0.529-0.868-1.387-0.607-2.164
		l5.16-15.422c0.215-0.642,0.738-1.131,1.393-1.301c0.657-0.168,1.352,0.001,1.851,0.457L47.69,74.054
		c0.568,0.518,0.789,1.314,0.57,2.05L43.74,91.258c-0.193,0.646-0.698,1.152-1.345,1.345C42.207,92.659,42.014,92.686,41.823,92.686
		z M31.608,79.455l9.171,7.734l3.289-11.025l-8.704-7.932L31.608,79.455z"/>
	<rect x="42.178" y="30.991" fill="#FFFFFF" width="46" height="65"/>
	<path fill="#324654" d="M88.178,98.991h-46c-1.657,0-3-1.343-3-3v-65c0-1.657,1.343-3,3-3h46c1.657,0,3,1.343,3,3v65
		C91.178,97.648,89.835,98.991,88.178,98.991z M45.178,92.991h40v-59h-40V92.991z"/>
	<path opacity="0.2" fill="#324654" d="M86.441,36.991H43.761c-1.657,0-3-1.343-3-3s1.343-3,3-3h42.681c1.657,0,3,1.343,3,3
		S88.099,36.991,86.441,36.991z"/>
	<path fill="#B9E3ED" d="M64.566,67.315l1.768-1.768l1.768,1.768c2.148,2.147,5.631,2.147,7.778,0c2.147-2.147,2.147-5.63,0-7.778
		l-1.768-1.768l-7.778-7.778l-7.777,7.778l-1.768,1.768c-2.148,2.147-2.148,5.631,0,7.778
		C58.935,69.463,62.418,69.463,64.566,67.315z"/>
	<path fill="#324654" d="M71.991,70.926c-2.003,0-3.887-0.779-5.304-2.196l-0.354-0.354l-0.354,0.354
		c-1.417,1.417-3.301,2.196-5.304,2.196c-2.003,0-3.887-0.779-5.303-2.196c-2.925-2.924-2.925-7.683,0-10.606l9.546-9.546
		c0.75-0.75,2.078-0.75,2.828,0l9.546,9.546c2.924,2.925,2.924,7.683,0,10.606C75.878,70.146,73.994,70.926,71.991,70.926z
		 M66.334,63.548c0.512,0,1.023,0.195,1.414,0.586l1.768,1.768c1.321,1.32,3.627,1.323,4.95,0c1.364-1.364,1.364-3.585,0-4.95
		l-8.132-8.132l-8.132,8.133c-1.364,1.364-1.364,3.584,0,4.949c1.323,1.323,3.629,1.32,4.95,0l1.768-1.768
		C65.31,63.743,65.822,63.548,66.334,63.548z"/>
	<polygon fill="#B9E3ED" points="77.178,73.933 70.106,66.861 63.036,73.933 	"/>
	<path fill="#324654" d="M77.178,75.933H63.036c-0.809,0-1.538-0.487-1.848-1.234c-0.31-0.747-0.139-1.607,0.434-2.18l7.07-7.071
		c0.75-0.75,2.078-0.75,2.828,0l7.071,7.071c0.572,0.572,0.743,1.432,0.434,2.18C78.716,75.445,77.986,75.933,77.178,75.933z
		 M67.864,71.933h4.485l-2.243-2.243L67.864,71.933z"/>
	
		<rect x="68.066" y="23.147" transform="matrix(0.966 0.2587 -0.2587 0.966 17.4966 -21.665)" fill="#FFBAB0" width="46" height="65"/>
	<path fill="#783741" d="M104.877,95.992c-0.257,0-0.518-0.033-0.778-0.104l-44.434-11.9c-0.769-0.205-1.424-0.708-1.821-1.397
		c-0.398-0.689-0.506-1.508-0.3-2.276L74.36,17.527c0.429-1.6,2.07-2.552,3.674-2.121l44.434,11.9
		c0.769,0.205,1.424,0.708,1.821,1.398c0.398,0.688,0.506,1.508,0.3,2.276l-16.816,62.787
		C107.414,95.107,106.201,95.992,104.877,95.992z M64.115,78.969l38.638,10.349l15.265-56.991L79.38,21.977L64.115,78.969z"/>
	
		<rect x="68.066" y="23.147" transform="matrix(0.966 0.2587 -0.2587 0.966 17.4966 -21.665)" fill="#FFFFFF" width="46" height="65"/>
	<path fill="#783741" d="M104.877,95.992c-0.257,0-0.518-0.033-0.778-0.104l-44.434-11.9c-0.769-0.205-1.424-0.708-1.821-1.397
		c-0.398-0.689-0.506-1.508-0.3-2.276L74.36,17.527c0.429-1.6,2.07-2.552,3.674-2.121l44.434,11.9
		c0.769,0.205,1.424,0.708,1.821,1.398c0.398,0.688,0.506,1.508,0.3,2.276l-16.816,62.787
		C107.414,95.107,106.201,95.992,104.877,95.992z M64.115,78.969l38.638,10.349l15.265-56.991L79.38,21.977L64.115,78.969z"/>
	<path opacity="0.2" fill="#783741" d="M101.9,92.899c-0.258,0-0.519-0.033-0.779-0.104c-1.601-0.429-2.55-2.074-2.12-3.675
		l14.449-53.949c-6.283-1.672-12.13-3.195-17.81-4.674c-6.545-1.705-12.291-3.468-19.703-5.453c-1.601-0.428-2.55-2.073-2.121-3.674
		c0.428-1.6,2.07-2.555,3.674-2.121c7.392,1.979,13.127,3.739,19.663,5.441c6.553,1.707,13.328,3.472,20.748,5.459
		c1.601,0.429,2.55,2.073,2.121,3.674l-15.227,56.852C104.436,92.016,103.225,92.899,101.9,92.899z"/>
	<path fill="#FFBAB0" d="M94.432,50.519l-2.164,1.25l-1.25-2.165c-1.52-2.63-4.884-3.531-7.514-2.012
		c-2.631,1.519-3.531,4.883-2.013,7.513l1.251,2.165l5.5,9.526l9.525-5.501l2.166-1.251c2.63-1.519,3.531-4.883,2.012-7.513
		C100.426,49.901,97.062,49.001,94.432,50.519z"/>
	<path fill="#783741" d="M88.242,68.797c-0.173,0-0.348-0.022-0.518-0.068c-0.513-0.137-0.949-0.473-1.215-0.932l-6.75-11.69
		c-1.002-1.735-1.269-3.757-0.75-5.691c0.519-1.936,1.759-3.553,3.494-4.555c1.139-0.658,2.435-1.006,3.745-1.006
		c2.673,0,5.164,1.437,6.5,3.749l0.25,0.434l0.433-0.249c1.14-0.658,2.436-1.007,3.745-1.007c2.674,0,5.164,1.438,6.5,3.751
		c1.003,1.734,1.269,3.755,0.751,5.69c-0.519,1.936-1.76,3.553-3.494,4.555l-11.691,6.751C88.935,68.706,88.59,68.797,88.242,68.797
		z M86.249,48.854c-0.609,0-1.212,0.162-1.744,0.47c-0.811,0.468-1.39,1.223-1.632,2.126c-0.241,0.902-0.117,1.846,0.351,2.655
		l5.751,9.959l9.959-5.751c0.809-0.468,1.388-1.223,1.63-2.126c0.242-0.902,0.117-1.846-0.35-2.654
		c-0.624-1.081-1.788-1.752-3.037-1.752c-0.609,0-1.213,0.163-1.745,0.471l-2.164,1.249c-0.46,0.266-1.005,0.339-1.518,0.2
		c-0.513-0.137-0.949-0.473-1.215-0.932l-1.25-2.165C88.662,49.525,87.498,48.854,86.249,48.854z"/>
</g>
</svg>
